<svg xmlns="http://www.w3.org/2000/svg" viewBox="56.95 156.32 305.73 61.06"><!-- Font: Roundhand Regular.ttf -->  <path d="M963 706Q915 697 872.0 675.5Q829 654 790 620Q832 580 852.0 519.5Q872 459 872 394Q872 224 735 102Q602 -16 429 -16Q402 -16 371 -11Q290 2 276 2Q259 2 232 -2Q172 -11 156 -11Q140 -11 127.0 -4.0Q114 3 114 10Q114 21 127.0 26.5Q140 32 152 32Q173 32 214.0 22.0Q255 12 274 12Q330 12 431 147Q479 211 612 417Q720 584 765 622Q726 652 676.5 667.0Q627 682 577 682Q424 682 302 580Q174 473 174 323Q174 257 200 217Q231 170 294 170Q396 170 448 270Q490 350 490 462H503V433Q503 323 448 243Q386 153 280 153Q210 153 169 205Q132 253 132 325Q132 476 283 590Q424 696 580 696Q636 696 686.0 680.5Q736 665 776 632Q819 664 864.0 685.5Q909 707 960 716ZM822 464Q822 508 812.0 542.0Q802 576 777 606Q723 541 638 388Q548 226 496 161Q405 47 294 9Q321 3 352.5 0.5Q384 -2 421 -2Q600 -2 715 144Q822 280 822 464Z" transform="translate(50, 200) scale(0.061, -0.061)" fill="#ffffff"></path>  <path d="M264 328Q227 328 172 269Q126 219 105 175Q164 188 216 217Q288 257 288 302Q288 328 264 328ZM448 251Q399 163 300 82Q189 -9 102 -9Q60 -9 37.5 11.5Q15 32 15 73Q15 158 107.0 250.0Q199 342 285 342Q306 342 321.5 332.0Q337 322 337 301Q337 255 239 210Q175 181 99 163Q88 142 81.0 118.5Q74 95 74 72Q74 44 84.5 26.5Q95 9 121 9Q195 9 300 100Q389 178 438 257Z" transform="translate(102.399, 200) scale(0.061, -0.061)" fill="#ffffff"></path>  <path d="M608 258Q556 170 468 90Q360 -9 280 -9Q247 -9 227.0 5.0Q207 19 207 50Q207 74 218 96Q178 48 140 23Q91 -9 40 -9Q-1 -9 -29.5 12.0Q-58 33 -58 74Q-58 97 -44.0 116.0Q-30 135 -8 135Q27 135 27 102Q27 88 19.5 79.5Q12 71 -1 71Q-18 71 -27 84Q-30 76 -31.5 72.0Q-33 68 -36 60Q-36 31 -14.0 18.0Q8 5 39 5Q112 5 192.0 105.5Q272 206 272 281Q272 304 260.5 320.0Q249 336 227 336Q187 336 153 293Q149 288 122 247L112 255Q139 299 163 320Q196 349 238 349Q276 349 301.5 324.5Q327 300 327 263Q359 298 397 318Q440 341 483 341Q509 341 529.5 328.0Q550 315 550 290Q550 273 535.5 262.5Q521 252 503 252L489 253Q496 272 499.0 282.0Q502 292 502 300Q502 328 475 328Q408 328 332.0 231.5Q256 135 256 66Q256 41 267.0 25.0Q278 9 303 9Q366 9 469 106Q557 189 599 262Z" transform="translate(121.919, 200) scale(0.061, -0.061)" fill="#ffffff"></path>  <path d="M264 328Q227 328 172 269Q126 219 105 175Q164 188 216 217Q288 257 288 302Q288 328 264 328ZM448 251Q399 163 300 82Q189 -9 102 -9Q60 -9 37.5 11.5Q15 32 15 73Q15 158 107.0 250.0Q199 342 285 342Q306 342 321.5 332.0Q337 322 337 301Q337 255 239 210Q175 181 99 163Q88 142 81.0 118.5Q74 95 74 72Q74 44 84.5 26.5Q95 9 121 9Q195 9 300 100Q389 178 438 257Z" transform="translate(151.321, 200) scale(0.061, -0.061)" fill="#ffffff"></path>  <path d="M216 334 92 154Q123 190 200 260Q291 342 311 342L350 340Q327 317 316 298Q301 272 301 247Q301 200 342 200Q366 200 395 220Q405 227 439 257L446 252Q415 221 394 208Q362 187 329 187Q297 187 279.0 207.0Q261 227 261 260Q261 282 271 301Q180 235 119 167Q48 89 6 -1L-59 -2Q46 168 154 334Z" transform="translate(170.841, 200) scale(0.061, -0.061)" fill="#ffffff"></path>  <path d="M244 425 235 419Q228 420 225.0 424.5Q222 429 219 446Q213 511 210 543Q204 608 204 641Q204 662 210.5 676.0Q217 690 234 690Q252 690 258.5 673.5Q265 657 265 638Q265 597 258.5 518.5Q252 440 244 425Z" transform="translate(190.36100000000002, 200) scale(0.061, -0.061)" fill="#ffffff"></path>  <path d="M445 250Q372 136 293 73Q191 -9 79 -9Q32 -9 1 15Q-34 42 -34 87Q-34 115 -17.5 134.5Q-1 154 27 154Q42 154 51.5 146.5Q61 139 61 124Q61 108 54.5 99.0Q48 90 33 90Q15 90 6 111Q-4 105 -6.5 91.5Q-9 78 -9 72Q-9 41 15.5 23.0Q40 5 72 5Q110 5 131.0 32.0Q152 59 152 98Q152 122 124 192Q110 227 110 250Q110 293 142.0 317.5Q174 342 218 342Q251 342 276 328Q307 310 307 279Q307 254 288.0 241.5Q269 229 244 229Q258 255 258 283Q258 304 246.0 316.0Q234 328 213 328Q188 328 173.5 312.5Q159 297 159 272Q159 247 174 211Q207 132 207 107Q207 71 178.5 42.0Q150 13 112 3Q209 15 300 92Q372 153 437 254Z" transform="translate(203.354, 200) scale(0.061, -0.061)" fill="#ffffff"></path>  <path d="M449 436Q451 420 452.5 400.0Q454 380 454 371Q454 287 410 224Q361 154 279 154Q212 154 171.0 200.0Q130 246 130 314Q130 477 294 589Q441 690 612 690Q667 690 710.5 681.5Q754 673 798 650Q859 685 933 696V683Q868 674 814 639Q843 615 859.5 585.0Q876 555 876 518Q876 451 819 402Q770 360 698 344Q755 338 789.5 305.5Q824 273 824 217Q824 130 750.5 60.5Q677 -9 589 -9Q541 -9 508 9Q466 32 466 77Q466 101 481.5 118.5Q497 136 522 136Q526 136 534.5 131.5Q543 127 551 123Q533 121 526.5 104.5Q520 88 520 65Q520 38 540.0 21.5Q560 5 588 5Q671 5 720 75Q764 138 764 224Q764 282 726.5 306.5Q689 331 629 331V344Q715 344 768.5 398.5Q822 453 822 538Q822 582 790 619Q723 559 619 381Q500 176 444 112Q332 -16 203 -16Q162 -16 131 0Q93 20 93 58Q93 77 103.5 88.5Q114 100 133 100Q147 100 157.0 89.0Q167 78 167 64Q167 50 158.0 40.0Q149 30 135 30Q140 13 160.0 5.0Q180 -3 201 -3Q297 -3 402 131Q421 155 582 407Q693 580 775 634Q744 659 701.0 668.0Q658 677 608 677Q449 677 315 580Q167 473 167 319Q167 259 192 218Q223 168 279 168Q376 168 413 260Q437 320 437 435Z" transform="translate(237.514, 200) scale(0.061, -0.061)" fill="#ffffff"></path>  <path d="M441 675Q385 593 330 511Q206 328 136 217Q32 53 32 28Q32 5 52 5Q119 5 243 148Q289 202 330 258L342 253Q308 204 264 152Q206 84 156 43Q92 -9 49 -9Q23 -9 7.0 3.5Q-9 16 -9 42Q-9 75 75 216Q141 326 243 482Q307 578 371 675Z" transform="translate(289.913, 200) scale(0.061, -0.061)" fill="#ffffff"></path>  <path d="M551 245Q527 218 499.5 202.5Q472 187 441 187Q391 187 365 226Q336 138 262 69Q180 -8 95 -8Q54 -8 32.0 16.0Q10 40 10 82Q10 166 103.5 253.5Q197 341 282 341Q348 341 366.0 269.5Q384 198 440 198Q468 198 493.5 212.5Q519 227 542 251ZM102 6Q176 6 247 108Q314 204 314 282Q314 301 303.5 315.5Q293 330 273 330Q207 330 135.5 229.5Q64 129 64 59Q64 36 72.0 21.0Q80 6 102 6Z" transform="translate(302.906, 200) scale(0.061, -0.061)" fill="#ffffff"></path>  <path d="M445 334Q395 263 336 174Q282 93 229 13Q322 31 412 106Q491 171 547 263L552 256Q498 161 413 92Q321 17 220 -2Q158 -86 115 -134Q50 -205 -13 -241Q-90 -285 -175 -285Q-237 -285 -282 -261Q-339 -230 -339 -174Q-339 -127 -305.0 -101.5Q-271 -76 -221 -76Q-215 -76 -210.0 -78.0Q-205 -80 -202 -81L-203 -90Q-245 -90 -265.0 -112.0Q-285 -134 -285 -176Q-285 -225 -250 -250Q-219 -272 -167 -272Q-60 -272 63 -133Q111 -79 231 99Q178 38 135 13Q97 -9 62 -9Q30 -9 11.0 13.0Q-8 35 -8 68Q-8 154 86.0 248.0Q180 342 266 342Q298 342 318.5 327.0Q339 312 339 281L376 334ZM51 62Q51 42 61.0 28.5Q71 15 90 15Q153 15 230 119Q304 219 304 286Q304 327 264 327Q195 327 121 228Q51 134 51 62Z" transform="translate(329.014, 200) scale(0.061, -0.061)" fill="#ffffff"></path></svg>